<svg id="Ebene_1" data-name="Ebene 1" xmlns="http://www.w3.org/2000/svg" xmlns:xlink="http://www.w3.org/1999/xlink" viewBox="0 0 1000 1000"><defs><style>.cls-1{fill:url(#Unbenannter_Verlauf_4);}.cls-2{fill:#fff;}.cls-3{fill:#171c33;}.cls-4{fill:#323c5a;}</style><radialGradient id="Unbenannter_Verlauf_4" cx="497.48" cy="409.33" r="135.77" gradientUnits="userSpaceOnUse"><stop offset="0" stop-color="#323c5a"/><stop offset="0.66" stop-color="#212841"/><stop offset="1" stop-color="#171c33"/></radialGradient></defs><title>Timo_Kruth_Logo</title><circle class="cls-1" cx="497.48" cy="409.33" r="135.77"/><path class="cls-2" d="M497.48,509.51a100.77,100.77,0,0,1-15.55-200.33,1.91,1.91,0,0,1,.59,3.77,96.95,96.95,0,1,0,111.9,95.8c0-47.38-35.25-88.56-82-95.8a1.91,1.91,0,0,1,.59-3.77,100.76,100.76,0,0,1-15.54,200.33Z"/><path class="cls-2" d="M546.22,459.3H512.45a1.85,1.85,0,0,1-1.36-.6l-50.46-55.07v52h21.26V445a1.85,1.85,0,1,1,3.7,0v12.48a1.85,1.85,0,0,1-1.85,1.85h-25a1.85,1.85,0,0,1-1.85-1.85V398.87a1.85,1.85,0,0,1,3.21-1.25l53.13,58H542l-59.65-65.16a1.85,1.85,0,0,1,0-2.5l28.74-31.13a1.85,1.85,0,0,1,1.36-.6H546a1.85,1.85,0,0,1,1.36,3.1l-38.82,42.41a1.85,1.85,0,1,1-2.73-2.5l36-39.31H513.29l-27,29.29,61.34,67a1.88,1.88,0,0,1,.33,2A1.86,1.86,0,0,1,546.22,459.3Z"/><path class="cls-2" d="M479.53,359.91l-18.9,20.66V359.91h18.9m4.21-3.7h-25a1.85,1.85,0,0,0-1.85,1.85v27.27a1.84,1.84,0,0,0,1.18,1.73,1.89,1.89,0,0,0,.67.12,1.84,1.84,0,0,0,1.36-.6l25-27.27a1.85,1.85,0,0,0-1.36-3.1Z"/><path class="cls-2" d="M497.48,331.89a1.9,1.9,0,0,1-1.91-1.9V291.47a1.91,1.91,0,1,1,3.81,0V330A1.9,1.9,0,0,1,497.48,331.89Z"/><path class="cls-3" d="M288,587.06v16H266.69v49.06H247.52V603H226.25v-16Z"/><path class="cls-3" d="M294.31,604.65h18.27v47.43H294.31Zm9.11-22.4a8.89,8.89,0,1,1-8.89,8.89A8.9,8.9,0,0,1,303.42,582.25Z"/><path class="cls-3" d="M320.74,604.65H339v4.49c1.77-3.4,5.94-5.85,11.88-5.85,7.12,0,12.16,2.63,15.06,7,3-4,8.66-7,15.82-7,12.61,0,19,8.89,19,22v26.84H382.5v-28.2c0-3.4-1.41-6.85-6.26-6.85s-6.35,3.45-6.35,6.85v28.2H351.62v-28.2c0-3.4-1.41-6.85-6.3-6.85s-6.31,3.45-6.31,6.85v28.2H320.74Z"/><path class="cls-3" d="M407.12,628.37c0-15.92,11.51-25.08,29.47-25.08s29.47,9.16,29.47,25.08-11.51,25.07-29.47,25.07S407.12,644.28,407.12,628.37Zm40.67,0c0-7.3-4.67-11.34-11.2-11.34s-11.2,4-11.2,11.34,4.67,11.33,11.2,11.33S447.79,635.67,447.79,628.37Z"/><path class="cls-3" d="M540.69,587.06h23l-27.3,27.07,27.62,38H542.24l-18.46-25.39-5.3,5.26v20.13H499.3v-65h19.18v22Z"/><path class="cls-3" d="M604.94,619.62a19.71,19.71,0,0,0-9.75-2.59c-5.62,0-7.88,3.58-7.88,9.25v25.8H569V604.65h18.28v4.85c2.31-4.17,7.84-6.21,12.83-6.21a22.09,22.09,0,0,1,12.6,3.4Z"/><path class="cls-3" d="M650.92,604.65h18.27v47.43H650.92v-4.85c-2.31,4.17-7.84,6.21-12.83,6.21-14.28,0-21.27-9-21.27-22.53V604.65H635.1v26.26c0,5.66,2.26,8.79,7.93,8.79s7.89-3.13,7.89-8.79Z"/><path class="cls-3" d="M674.63,604.65H683V591.14h18.27v13.51h12.24v13.74H701.25v12.83c0,6.4,1.13,8.94,5.89,8.94a15.22,15.22,0,0,0,5.22-1l3.58,11.88a30.23,30.23,0,0,1-11.88,2.36c-16.14,0-21.08-7.48-21.08-22.22V618.39h-8.35Z"/><path class="cls-3" d="M739.65,652.08H721.38V583.34h18.27V609.5c2.32-4.17,7.85-6.21,12.83-6.21,14.29,0,21.27,9,21.27,22.54v26.25H755.48V625.83c0-5.67-2.27-8.8-7.94-8.8s-7.89,3.13-7.89,8.8Z"/><path class="cls-4" d="M294.17,685.87h9.39v40.44h-9.39Z"/><path class="cls-4" d="M352.77,685.87V694H335.4v32.29H326V694H308.63v-8.15Z"/><path class="cls-4" d="M408.15,695.48s-5.61-2.59-14.86-2.59c-6.94,0-9.84,1.47-9.84,3.92,0,2.74,3.55,3.58,11.19,5.08,13.12,2.56,19.35,5.33,19.35,13.19,0,8.15-7.67,12.36-20.7,12.36-14.3,0-21-4.8-21-4.8l4.6-6.65a38.93,38.93,0,0,0,16.38,3.3c7.64,0,11.2-1.56,11.2-4.21s-2.77-3.15-11.62-5c-14.24-2.9-18.92-6.46-18.92-13.31,0-6.2,4.62-12.07,19.34-12.07,14,0,19.46,4.09,19.46,4.09Z"/><path class="cls-4" d="M419.07,708V685.87h9.39V708c0,7.27,2.62,11.34,12.26,11.34S453,715.22,453,708V685.87h9.39V708c0,11.84-5.64,19.49-21.66,19.49S419.07,719.79,419.07,708Z"/><path class="cls-4" d="M469.15,726.31V685.87h26.28c10,0,16.24,5.13,16.24,14.16s-6.26,14.15-16.24,14.15H478.54v12.13ZM478.54,694v12h16.89c4.54,0,6.74-2.23,6.74-6s-2.2-6-6.74-6Z"/><path class="cls-4" d="M517.88,726.31V685.87h26.28c10,0,16.24,5.13,16.24,14.16s-6.26,14.15-16.24,14.15H527.27v12.13ZM527.27,694v12h16.89c4.54,0,6.74-2.23,6.74-6s-2.2-6-6.74-6Z"/><path class="cls-4" d="M565.48,706.09c0-11.59,8.63-21.35,27-21.35s27,9.76,27,21.35-8.63,21.35-27,21.35S565.48,717.68,565.48,706.09Zm44.25,0c0-6.88-4.85-13.2-17.29-13.2s-17.29,6.32-17.29,13.2,4.85,13.2,17.29,13.2S609.73,713,609.73,706.09Z"/><path class="cls-4" d="M625,726.31V685.87H651.6c11,0,15.91,6.54,15.91,13.68,0,6-3.08,9.84-8.41,11.61l8.8,15.15H657.44l-8.09-13.93H634.43v13.93ZM634.43,694v11.05H651.6c4.88,0,6.4-2.59,6.4-5.52s-1.52-5.53-6.4-5.53Z"/><path class="cls-4" d="M716,685.87V694H698.61v32.29h-9.39V694H671.85v-8.15Z"/></svg>